<mxfile>
    <diagram name="forecast_statistics" id="FCdsSSXMZ4v17LM1Qf2R">
        <mxGraphModel dx="990" dy="470" grid="1" gridSize="10" guides="1" tooltips="1" connect="1" arrows="1" fold="1" page="1" pageScale="1" pageWidth="827" pageHeight="1169" math="0" shadow="0">
            <root>
                <mxCell id="EhWJuA080w2vwQbE3XQY-0"/>
                <mxCell id="EhWJuA080w2vwQbE3XQY-1" parent="EhWJuA080w2vwQbE3XQY-0"/>
                <mxCell id="EhWJuA080w2vwQbE3XQY-2" value="Actor" style="shape=umlActor;verticalLabelPosition=bottom;verticalAlign=top;html=1;" vertex="1" parent="EhWJuA080w2vwQbE3XQY-1">
                    <mxGeometry x="40" y="55" width="20" height="50" as="geometry"/>
                </mxCell>
                <mxCell id="EhWJuA080w2vwQbE3XQY-3" value="JSON&lt;br&gt;response" style="html=1;align=center;verticalAlign=top;rounded=1;absoluteArcSize=1;arcSize=10;dashed=0;shadow=0;" vertex="1" parent="EhWJuA080w2vwQbE3XQY-1">
                    <mxGeometry x="100" y="390" width="140" height="40" as="geometry"/>
                </mxCell>
                <mxCell id="EhWJuA080w2vwQbE3XQY-4" value="GET&lt;br&gt;request" style="html=1;align=center;verticalAlign=top;rounded=1;absoluteArcSize=1;arcSize=10;dashed=0;shadow=0;" vertex="1" parent="EhWJuA080w2vwQbE3XQY-1">
                    <mxGeometry x="100" y="60" width="140" height="40" as="geometry"/>
                </mxCell>
                <mxCell id="EhWJuA080w2vwQbE3XQY-5" value="" style="html=1;verticalAlign=bottom;labelBackgroundColor=none;endArrow=open;endFill=0;dashed=1;exitX=0.5;exitY=1;exitDx=0;exitDy=0;entryX=0.5;entryY=0;entryDx=0;entryDy=0;" edge="1" parent="EhWJuA080w2vwQbE3XQY-1" source="EhWJuA080w2vwQbE3XQY-4" target="EhWJuA080w2vwQbE3XQY-3">
                    <mxGeometry width="160" relative="1" as="geometry">
                        <mxPoint x="180" y="120" as="sourcePoint"/>
                        <mxPoint x="169.5" y="184" as="targetPoint"/>
                    </mxGeometry>
                </mxCell>
                <mxCell id="EhWJuA080w2vwQbE3XQY-6" value="" style="html=1;verticalAlign=bottom;labelBackgroundColor=none;endArrow=open;endFill=0;entryX=0;entryY=0.5;entryDx=0;entryDy=0;" edge="1" parent="EhWJuA080w2vwQbE3XQY-1" target="EhWJuA080w2vwQbE3XQY-11">
                    <mxGeometry width="160" relative="1" as="geometry">
                        <mxPoint x="170" y="130" as="sourcePoint"/>
                        <mxPoint x="330" y="130" as="targetPoint"/>
                    </mxGeometry>
                </mxCell>
                <mxCell id="EhWJuA080w2vwQbE3XQY-7" value="" style="html=1;verticalAlign=bottom;labelBackgroundColor=none;endArrow=open;endFill=0;dashed=1;entryX=0;entryY=0.5;entryDx=0;entryDy=0;exitX=0.5;exitY=0.5;exitDx=0;exitDy=0;exitPerimeter=0;" edge="1" parent="EhWJuA080w2vwQbE3XQY-1" source="EhWJuA080w2vwQbE3XQY-2" target="EhWJuA080w2vwQbE3XQY-4">
                    <mxGeometry width="160" relative="1" as="geometry">
                        <mxPoint x="50" y="80" as="sourcePoint"/>
                        <mxPoint x="220" y="79.5" as="targetPoint"/>
                    </mxGeometry>
                </mxCell>
                <mxCell id="EhWJuA080w2vwQbE3XQY-8" value="Actor" style="shape=umlActor;verticalLabelPosition=bottom;verticalAlign=top;html=1;" vertex="1" parent="EhWJuA080w2vwQbE3XQY-1">
                    <mxGeometry x="40" y="385" width="20" height="50" as="geometry"/>
                </mxCell>
                <mxCell id="EhWJuA080w2vwQbE3XQY-9" value="" style="html=1;verticalAlign=bottom;labelBackgroundColor=none;endArrow=open;endFill=0;dashed=1;entryX=0.5;entryY=0.5;entryDx=0;entryDy=0;entryPerimeter=0;exitX=0;exitY=0.5;exitDx=0;exitDy=0;" edge="1" parent="EhWJuA080w2vwQbE3XQY-1" source="EhWJuA080w2vwQbE3XQY-3" target="EhWJuA080w2vwQbE3XQY-8">
                    <mxGeometry width="160" relative="1" as="geometry">
                        <mxPoint x="100" y="405" as="sourcePoint"/>
                        <mxPoint x="50" y="405" as="targetPoint"/>
                    </mxGeometry>
                </mxCell>
                <mxCell id="EhWJuA080w2vwQbE3XQY-10" style="edgeStyle=orthogonalEdgeStyle;rounded=0;orthogonalLoop=1;jettySize=auto;html=1;exitX=0.5;exitY=1;exitDx=0;exitDy=0;entryX=0.5;entryY=0;entryDx=0;entryDy=0;dashed=1;" edge="1" parent="EhWJuA080w2vwQbE3XQY-1" source="EhWJuA080w2vwQbE3XQY-11" target="EhWJuA080w2vwQbE3XQY-13">
                    <mxGeometry relative="1" as="geometry"/>
                </mxCell>
                <mxCell id="EhWJuA080w2vwQbE3XQY-11" value="&lt;div style=&quot;background-color: rgb(255 , 255 , 255) ; font-family: &amp;#34;consolas&amp;#34; , &amp;#34;courier new&amp;#34; , monospace ; font-size: 14px ; line-height: 19px&quot;&gt;ForecastRestController&lt;/div&gt;" style="html=1;align=center;verticalAlign=top;rounded=1;absoluteArcSize=1;arcSize=10;dashed=0;shadow=0;spacingTop=12;" vertex="1" parent="EhWJuA080w2vwQbE3XQY-1">
                    <mxGeometry x="260" y="100" width="200" height="60" as="geometry"/>
                </mxCell>
                <mxCell id="EhWJuA080w2vwQbE3XQY-12" value="" style="html=1;verticalAlign=bottom;labelBackgroundColor=none;endArrow=open;endFill=0;entryX=0;entryY=0.5;entryDx=0;entryDy=0;exitX=0;exitY=0.5;exitDx=0;exitDy=0;" edge="1" parent="EhWJuA080w2vwQbE3XQY-1" source="EhWJuA080w2vwQbE3XQY-13">
                    <mxGeometry width="160" relative="1" as="geometry">
                        <mxPoint x="330" y="250" as="sourcePoint"/>
                        <mxPoint x="170" y="350" as="targetPoint"/>
                    </mxGeometry>
                </mxCell>
                <mxCell id="EhWJuA080w2vwQbE3XQY-13" value="&lt;div style=&quot;background-color: rgb(255 , 255 , 255) ; font-family: &amp;#34;consolas&amp;#34; , &amp;#34;courier new&amp;#34; , monospace ; font-size: 14px ; line-height: 19px&quot;&gt;ForecastRestController&lt;/div&gt;" style="html=1;align=center;verticalAlign=top;rounded=1;absoluteArcSize=1;arcSize=10;dashed=0;shadow=0;spacingTop=12;" vertex="1" parent="EhWJuA080w2vwQbE3XQY-1">
                    <mxGeometry x="260" y="320" width="200" height="60" as="geometry"/>
                </mxCell>
                <mxCell id="EhWJuA080w2vwQbE3XQY-14" value="" style="html=1;verticalAlign=bottom;labelBackgroundColor=none;endArrow=open;endFill=0;entryX=0;entryY=0.25;entryDx=0;entryDy=0;" edge="1" parent="EhWJuA080w2vwQbE3XQY-1" target="EhWJuA080w2vwQbE3XQY-19">
                    <mxGeometry width="160" relative="1" as="geometry">
                        <mxPoint x="360" y="210" as="sourcePoint"/>
                        <mxPoint x="520" y="200" as="targetPoint"/>
                    </mxGeometry>
                </mxCell>
                <mxCell id="EhWJuA080w2vwQbE3XQY-15" value="" style="html=1;verticalAlign=bottom;labelBackgroundColor=none;endArrow=open;endFill=0;exitX=0;exitY=0.75;exitDx=0;exitDy=0;" edge="1" parent="EhWJuA080w2vwQbE3XQY-1" source="EhWJuA080w2vwQbE3XQY-19">
                    <mxGeometry width="160" relative="1" as="geometry">
                        <mxPoint x="520" y="230" as="sourcePoint"/>
                        <mxPoint x="360" y="255" as="targetPoint"/>
                    </mxGeometry>
                </mxCell>
                <mxCell id="gVXX9u1NwPW4KdkQFmkf-0" style="edgeStyle=orthogonalEdgeStyle;rounded=0;orthogonalLoop=1;jettySize=auto;html=1;exitX=1;exitY=0.25;exitDx=0;exitDy=0;entryX=0;entryY=0.3;entryDx=0;entryDy=0;fontSize=18;" edge="1" parent="EhWJuA080w2vwQbE3XQY-1" source="EhWJuA080w2vwQbE3XQY-19" target="EhWJuA080w2vwQbE3XQY-20">
                    <mxGeometry relative="1" as="geometry"/>
                </mxCell>
                <mxCell id="gVXX9u1NwPW4KdkQFmkf-1" style="edgeStyle=orthogonalEdgeStyle;rounded=0;orthogonalLoop=1;jettySize=auto;html=1;exitX=0.009;exitY=0.651;exitDx=0;exitDy=0;entryX=1;entryY=0.75;entryDx=0;entryDy=0;fontSize=18;exitPerimeter=0;" edge="1" parent="EhWJuA080w2vwQbE3XQY-1" source="EhWJuA080w2vwQbE3XQY-20" target="EhWJuA080w2vwQbE3XQY-19">
                    <mxGeometry relative="1" as="geometry"/>
                </mxCell>
                <mxCell id="EhWJuA080w2vwQbE3XQY-19" value="&lt;div style=&quot;background-color: rgb(255 , 255 , 255) ; font-family: &amp;#34;consolas&amp;#34; , &amp;#34;courier new&amp;#34; , monospace ; font-size: 14px ; line-height: 19px&quot;&gt;&lt;div style=&quot;font-family: &amp;#34;consolas&amp;#34; , &amp;#34;courier new&amp;#34; , monospace ; line-height: 19px&quot;&gt;&lt;div style=&quot;font-family: &amp;#34;consolas&amp;#34; , &amp;#34;courier new&amp;#34; , monospace ; line-height: 19px&quot;&gt;forecastService&lt;/div&gt;&lt;/div&gt;&lt;div style=&quot;font-family: &amp;#34;consolas&amp;#34; , &amp;#34;courier new&amp;#34; , monospace ; line-height: 19px&quot;&gt;&lt;div style=&quot;font-family: &amp;#34;consolas&amp;#34; , &amp;#34;courier new&amp;#34; , monospace ; line-height: 19px&quot;&gt;&lt;span style=&quot;font-family: &amp;#34;consolas&amp;#34; , &amp;#34;courier new&amp;#34; , monospace&quot;&gt;getStatisticsFor&lt;/span&gt;()&lt;/div&gt;&lt;/div&gt;&lt;/div&gt;" style="html=1;align=center;verticalAlign=top;rounded=1;absoluteArcSize=1;arcSize=10;dashed=0;shadow=0;spacingTop=22;" vertex="1" parent="EhWJuA080w2vwQbE3XQY-1">
                    <mxGeometry x="480" y="186" width="230" height="94" as="geometry"/>
                </mxCell>
                <mxCell id="EhWJuA080w2vwQbE3XQY-20" value="forecasts&lt;br&gt;table" style="shape=cylinder;whiteSpace=wrap;html=1;boundedLbl=1;backgroundOutline=1;shadow=0;strokeWidth=2;glass=1;spacingTop=-24;" vertex="1" parent="EhWJuA080w2vwQbE3XQY-1">
                    <mxGeometry x="822" y="169" width="90" height="133" as="geometry"/>
                </mxCell>
            </root>
        </mxGraphModel>
    </diagram>
    <diagram name="forecast" id="2eC9XaLJyplGS8h4Ox1v">
        <mxGraphModel dx="990" dy="470" grid="1" gridSize="10" guides="1" tooltips="1" connect="1" arrows="1" fold="1" page="1" pageScale="1" pageWidth="827" pageHeight="1169" math="0" shadow="0">
            <root>
                <mxCell id="yZU6rky0K4uLvAfe7fMR-0"/>
                <mxCell id="yZU6rky0K4uLvAfe7fMR-1" parent="yZU6rky0K4uLvAfe7fMR-0"/>
                <mxCell id="yZU6rky0K4uLvAfe7fMR-2" value="Actor" style="shape=umlActor;verticalLabelPosition=bottom;verticalAlign=top;html=1;" vertex="1" parent="yZU6rky0K4uLvAfe7fMR-1">
                    <mxGeometry x="40" y="55" width="20" height="50" as="geometry"/>
                </mxCell>
                <mxCell id="yZU6rky0K4uLvAfe7fMR-3" value="JSON&lt;br&gt;response" style="html=1;align=center;verticalAlign=top;rounded=1;absoluteArcSize=1;arcSize=10;dashed=0;shadow=0;" vertex="1" parent="yZU6rky0K4uLvAfe7fMR-1">
                    <mxGeometry x="100" y="390" width="140" height="40" as="geometry"/>
                </mxCell>
                <mxCell id="yZU6rky0K4uLvAfe7fMR-4" value="GET&lt;br&gt;request" style="html=1;align=center;verticalAlign=top;rounded=1;absoluteArcSize=1;arcSize=10;dashed=0;shadow=0;" vertex="1" parent="yZU6rky0K4uLvAfe7fMR-1">
                    <mxGeometry x="100" y="60" width="140" height="40" as="geometry"/>
                </mxCell>
                <mxCell id="yZU6rky0K4uLvAfe7fMR-5" value="" style="html=1;verticalAlign=bottom;labelBackgroundColor=none;endArrow=open;endFill=0;dashed=1;exitX=0.5;exitY=1;exitDx=0;exitDy=0;entryX=0.5;entryY=0;entryDx=0;entryDy=0;" edge="1" parent="yZU6rky0K4uLvAfe7fMR-1" source="yZU6rky0K4uLvAfe7fMR-4" target="yZU6rky0K4uLvAfe7fMR-3">
                    <mxGeometry width="160" relative="1" as="geometry">
                        <mxPoint x="180" y="120" as="sourcePoint"/>
                        <mxPoint x="169.5" y="184" as="targetPoint"/>
                    </mxGeometry>
                </mxCell>
                <mxCell id="yZU6rky0K4uLvAfe7fMR-6" value="" style="html=1;verticalAlign=bottom;labelBackgroundColor=none;endArrow=open;endFill=0;entryX=0;entryY=0.5;entryDx=0;entryDy=0;" edge="1" parent="yZU6rky0K4uLvAfe7fMR-1" target="yZU6rky0K4uLvAfe7fMR-11">
                    <mxGeometry width="160" relative="1" as="geometry">
                        <mxPoint x="170" y="130" as="sourcePoint"/>
                        <mxPoint x="330" y="130" as="targetPoint"/>
                    </mxGeometry>
                </mxCell>
                <mxCell id="yZU6rky0K4uLvAfe7fMR-7" value="" style="html=1;verticalAlign=bottom;labelBackgroundColor=none;endArrow=open;endFill=0;dashed=1;entryX=0;entryY=0.5;entryDx=0;entryDy=0;exitX=0.5;exitY=0.5;exitDx=0;exitDy=0;exitPerimeter=0;" edge="1" parent="yZU6rky0K4uLvAfe7fMR-1" source="yZU6rky0K4uLvAfe7fMR-2" target="yZU6rky0K4uLvAfe7fMR-4">
                    <mxGeometry width="160" relative="1" as="geometry">
                        <mxPoint x="50" y="80" as="sourcePoint"/>
                        <mxPoint x="220" y="79.5" as="targetPoint"/>
                    </mxGeometry>
                </mxCell>
                <mxCell id="yZU6rky0K4uLvAfe7fMR-8" value="Actor" style="shape=umlActor;verticalLabelPosition=bottom;verticalAlign=top;html=1;" vertex="1" parent="yZU6rky0K4uLvAfe7fMR-1">
                    <mxGeometry x="40" y="385" width="20" height="50" as="geometry"/>
                </mxCell>
                <mxCell id="yZU6rky0K4uLvAfe7fMR-9" value="" style="html=1;verticalAlign=bottom;labelBackgroundColor=none;endArrow=open;endFill=0;dashed=1;entryX=0.5;entryY=0.5;entryDx=0;entryDy=0;entryPerimeter=0;exitX=0;exitY=0.5;exitDx=0;exitDy=0;" edge="1" parent="yZU6rky0K4uLvAfe7fMR-1" source="yZU6rky0K4uLvAfe7fMR-3" target="yZU6rky0K4uLvAfe7fMR-8">
                    <mxGeometry width="160" relative="1" as="geometry">
                        <mxPoint x="100" y="405" as="sourcePoint"/>
                        <mxPoint x="50" y="405" as="targetPoint"/>
                    </mxGeometry>
                </mxCell>
                <mxCell id="yZU6rky0K4uLvAfe7fMR-10" style="edgeStyle=orthogonalEdgeStyle;rounded=0;orthogonalLoop=1;jettySize=auto;html=1;exitX=0.5;exitY=1;exitDx=0;exitDy=0;entryX=0.5;entryY=0;entryDx=0;entryDy=0;dashed=1;" edge="1" parent="yZU6rky0K4uLvAfe7fMR-1" source="yZU6rky0K4uLvAfe7fMR-11" target="yZU6rky0K4uLvAfe7fMR-13">
                    <mxGeometry relative="1" as="geometry"/>
                </mxCell>
                <mxCell id="yZU6rky0K4uLvAfe7fMR-11" value="&lt;div style=&quot;background-color: rgb(255 , 255 , 255) ; font-family: &amp;#34;consolas&amp;#34; , &amp;#34;courier new&amp;#34; , monospace ; font-size: 14px ; line-height: 19px&quot;&gt;ForecastRestController&lt;/div&gt;" style="html=1;align=center;verticalAlign=top;rounded=1;absoluteArcSize=1;arcSize=10;dashed=0;shadow=0;spacingTop=12;" vertex="1" parent="yZU6rky0K4uLvAfe7fMR-1">
                    <mxGeometry x="260" y="100" width="200" height="60" as="geometry"/>
                </mxCell>
                <mxCell id="yZU6rky0K4uLvAfe7fMR-12" value="" style="html=1;verticalAlign=bottom;labelBackgroundColor=none;endArrow=open;endFill=0;entryX=0;entryY=0.5;entryDx=0;entryDy=0;exitX=0;exitY=0.5;exitDx=0;exitDy=0;" edge="1" parent="yZU6rky0K4uLvAfe7fMR-1" source="yZU6rky0K4uLvAfe7fMR-13">
                    <mxGeometry width="160" relative="1" as="geometry">
                        <mxPoint x="330" y="250" as="sourcePoint"/>
                        <mxPoint x="170" y="350" as="targetPoint"/>
                    </mxGeometry>
                </mxCell>
                <mxCell id="yZU6rky0K4uLvAfe7fMR-13" value="&lt;div style=&quot;background-color: rgb(255 , 255 , 255) ; font-family: &amp;#34;consolas&amp;#34; , &amp;#34;courier new&amp;#34; , monospace ; font-size: 14px ; line-height: 19px&quot;&gt;ForecastRestController&lt;/div&gt;" style="html=1;align=center;verticalAlign=top;rounded=1;absoluteArcSize=1;arcSize=10;dashed=0;shadow=0;spacingTop=12;" vertex="1" parent="yZU6rky0K4uLvAfe7fMR-1">
                    <mxGeometry x="260" y="320" width="200" height="60" as="geometry"/>
                </mxCell>
                <mxCell id="yZU6rky0K4uLvAfe7fMR-14" value="" style="html=1;verticalAlign=bottom;labelBackgroundColor=none;endArrow=open;endFill=0;entryX=0;entryY=0.25;entryDx=0;entryDy=0;" edge="1" parent="yZU6rky0K4uLvAfe7fMR-1" target="yZU6rky0K4uLvAfe7fMR-19">
                    <mxGeometry width="160" relative="1" as="geometry">
                        <mxPoint x="360" y="210" as="sourcePoint"/>
                        <mxPoint x="520" y="200" as="targetPoint"/>
                    </mxGeometry>
                </mxCell>
                <mxCell id="yZU6rky0K4uLvAfe7fMR-15" value="" style="html=1;verticalAlign=bottom;labelBackgroundColor=none;endArrow=open;endFill=0;exitX=0;exitY=0.75;exitDx=0;exitDy=0;" edge="1" parent="yZU6rky0K4uLvAfe7fMR-1" source="yZU6rky0K4uLvAfe7fMR-19">
                    <mxGeometry width="160" relative="1" as="geometry">
                        <mxPoint x="520" y="230" as="sourcePoint"/>
                        <mxPoint x="360" y="255" as="targetPoint"/>
                    </mxGeometry>
                </mxCell>
                <mxCell id="yZU6rky0K4uLvAfe7fMR-17" style="edgeStyle=orthogonalEdgeStyle;rounded=0;orthogonalLoop=1;jettySize=auto;html=1;exitX=0.09;exitY=0.677;exitDx=0;exitDy=0;entryX=1;entryY=0.75;entryDx=0;entryDy=0;exitPerimeter=0;dashed=1;" edge="1" parent="yZU6rky0K4uLvAfe7fMR-1" source="yZU6rky0K4uLvAfe7fMR-21" target="yZU6rky0K4uLvAfe7fMR-19">
                    <mxGeometry relative="1" as="geometry"/>
                </mxCell>
                <mxCell id="yZU6rky0K4uLvAfe7fMR-23" style="edgeStyle=orthogonalEdgeStyle;rounded=0;orthogonalLoop=1;jettySize=auto;html=1;exitX=1;exitY=0.25;exitDx=0;exitDy=0;entryX=0.051;entryY=0.406;entryDx=0;entryDy=0;entryPerimeter=0;dashed=1;fontSize=18;" edge="1" parent="yZU6rky0K4uLvAfe7fMR-1" source="yZU6rky0K4uLvAfe7fMR-19" target="yZU6rky0K4uLvAfe7fMR-21">
                    <mxGeometry relative="1" as="geometry"/>
                </mxCell>
                <mxCell id="yZU6rky0K4uLvAfe7fMR-19" value="&lt;div style=&quot;background-color: rgb(255 , 255 , 255) ; font-family: &amp;#34;consolas&amp;#34; , &amp;#34;courier new&amp;#34; , monospace ; font-size: 14px ; line-height: 19px&quot;&gt;&lt;div style=&quot;font-family: &amp;#34;consolas&amp;#34; , &amp;#34;courier new&amp;#34; , monospace ; line-height: 19px&quot;&gt;&lt;div style=&quot;font-family: &amp;#34;consolas&amp;#34; , &amp;#34;courier new&amp;#34; , monospace ; line-height: 19px&quot;&gt;forecastService&lt;/div&gt;&lt;/div&gt;&lt;div style=&quot;font-family: &amp;#34;consolas&amp;#34; , &amp;#34;courier new&amp;#34; , monospace ; line-height: 19px&quot;&gt;&lt;div style=&quot;font-family: &amp;#34;consolas&amp;#34; , &amp;#34;courier new&amp;#34; , monospace ; line-height: 19px&quot;&gt;&lt;span style=&quot;font-family: &amp;#34;consolas&amp;#34; , &amp;#34;courier new&amp;#34; , monospace&quot;&gt;getForecastFor&lt;/span&gt;()&lt;/div&gt;&lt;/div&gt;&lt;/div&gt;" style="html=1;align=center;verticalAlign=top;rounded=1;absoluteArcSize=1;arcSize=10;dashed=0;shadow=0;spacingTop=22;" vertex="1" parent="yZU6rky0K4uLvAfe7fMR-1">
                    <mxGeometry x="480" y="186" width="230" height="94" as="geometry"/>
                </mxCell>
                <mxCell id="yZU6rky0K4uLvAfe7fMR-21" value="" style="pointerEvents=1;shadow=0;dashed=0;html=1;strokeColor=none;fillColor=#505050;labelPosition=center;verticalLabelPosition=bottom;outlineConnect=0;verticalAlign=top;align=center;shape=mxgraph.office.clouds.public_cloud;" vertex="1" parent="yZU6rky0K4uLvAfe7fMR-1">
                    <mxGeometry x="799" y="141" width="200" height="170" as="geometry"/>
                </mxCell>
                <mxCell id="yZU6rky0K4uLvAfe7fMR-22" value="www.openweathermap.org" style="text;html=1;resizable=0;autosize=1;align=center;verticalAlign=middle;points=[];fillColor=none;strokeColor=none;rounded=0;fontStyle=0;fontSize=18;spacing=7;" vertex="1" parent="yZU6rky0K4uLvAfe7fMR-1">
                    <mxGeometry x="759" y="105" width="240" height="40" as="geometry"/>
                </mxCell>
            </root>
        </mxGraphModel>
    </diagram>
    <diagram name="forecast_autolookup" id="Ji-H7JFQmMfG3vx98Tk6">
        <mxGraphModel dx="990" dy="470" grid="1" gridSize="10" guides="1" tooltips="1" connect="1" arrows="1" fold="1" page="1" pageScale="1" pageWidth="827" pageHeight="1169" math="0" shadow="0">
            <root>
                <mxCell id="OnsMzoF5R4syNADGerhL-0"/>
                <mxCell id="OnsMzoF5R4syNADGerhL-1" parent="OnsMzoF5R4syNADGerhL-0"/>
                <mxCell id="OnsMzoF5R4syNADGerhL-2" value="Actor" style="shape=umlActor;verticalLabelPosition=bottom;verticalAlign=top;html=1;" vertex="1" parent="OnsMzoF5R4syNADGerhL-1">
                    <mxGeometry x="40" y="55" width="20" height="50" as="geometry"/>
                </mxCell>
                <mxCell id="OnsMzoF5R4syNADGerhL-3" value="HTML&lt;br&gt;response" style="html=1;align=center;verticalAlign=top;rounded=1;absoluteArcSize=1;arcSize=10;dashed=0;shadow=0;" vertex="1" parent="OnsMzoF5R4syNADGerhL-1">
                    <mxGeometry x="100" y="390" width="140" height="40" as="geometry"/>
                </mxCell>
                <mxCell id="OnsMzoF5R4syNADGerhL-4" value="GET&lt;br&gt;request" style="html=1;align=center;verticalAlign=top;rounded=1;absoluteArcSize=1;arcSize=10;dashed=0;shadow=0;" vertex="1" parent="OnsMzoF5R4syNADGerhL-1">
                    <mxGeometry x="100" y="60" width="140" height="40" as="geometry"/>
                </mxCell>
                <mxCell id="OnsMzoF5R4syNADGerhL-5" value="" style="html=1;verticalAlign=bottom;labelBackgroundColor=none;endArrow=open;endFill=0;dashed=1;exitX=0.5;exitY=1;exitDx=0;exitDy=0;entryX=0.5;entryY=0;entryDx=0;entryDy=0;" edge="1" parent="OnsMzoF5R4syNADGerhL-1" source="OnsMzoF5R4syNADGerhL-4" target="OnsMzoF5R4syNADGerhL-3">
                    <mxGeometry width="160" relative="1" as="geometry">
                        <mxPoint x="180" y="120" as="sourcePoint"/>
                        <mxPoint x="169.5" y="184" as="targetPoint"/>
                    </mxGeometry>
                </mxCell>
                <mxCell id="OnsMzoF5R4syNADGerhL-6" value="" style="html=1;verticalAlign=bottom;labelBackgroundColor=none;endArrow=open;endFill=0;entryX=0;entryY=0.5;entryDx=0;entryDy=0;" edge="1" parent="OnsMzoF5R4syNADGerhL-1" target="OnsMzoF5R4syNADGerhL-11">
                    <mxGeometry width="160" relative="1" as="geometry">
                        <mxPoint x="170" y="130" as="sourcePoint"/>
                        <mxPoint x="330" y="130" as="targetPoint"/>
                    </mxGeometry>
                </mxCell>
                <mxCell id="OnsMzoF5R4syNADGerhL-7" value="" style="html=1;verticalAlign=bottom;labelBackgroundColor=none;endArrow=open;endFill=0;dashed=1;entryX=0;entryY=0.5;entryDx=0;entryDy=0;exitX=0.5;exitY=0.5;exitDx=0;exitDy=0;exitPerimeter=0;" edge="1" parent="OnsMzoF5R4syNADGerhL-1" source="OnsMzoF5R4syNADGerhL-2" target="OnsMzoF5R4syNADGerhL-4">
                    <mxGeometry width="160" relative="1" as="geometry">
                        <mxPoint x="50" y="80" as="sourcePoint"/>
                        <mxPoint x="220" y="79.5" as="targetPoint"/>
                    </mxGeometry>
                </mxCell>
                <mxCell id="OnsMzoF5R4syNADGerhL-8" value="Actor" style="shape=umlActor;verticalLabelPosition=bottom;verticalAlign=top;html=1;" vertex="1" parent="OnsMzoF5R4syNADGerhL-1">
                    <mxGeometry x="40" y="385" width="20" height="50" as="geometry"/>
                </mxCell>
                <mxCell id="OnsMzoF5R4syNADGerhL-9" value="" style="html=1;verticalAlign=bottom;labelBackgroundColor=none;endArrow=open;endFill=0;dashed=1;entryX=0.5;entryY=0.5;entryDx=0;entryDy=0;entryPerimeter=0;exitX=0;exitY=0.5;exitDx=0;exitDy=0;" edge="1" parent="OnsMzoF5R4syNADGerhL-1" source="OnsMzoF5R4syNADGerhL-3" target="OnsMzoF5R4syNADGerhL-8">
                    <mxGeometry width="160" relative="1" as="geometry">
                        <mxPoint x="100" y="405" as="sourcePoint"/>
                        <mxPoint x="50" y="405" as="targetPoint"/>
                    </mxGeometry>
                </mxCell>
                <mxCell id="OnsMzoF5R4syNADGerhL-10" style="edgeStyle=orthogonalEdgeStyle;rounded=0;orthogonalLoop=1;jettySize=auto;html=1;exitX=0.5;exitY=1;exitDx=0;exitDy=0;entryX=0.5;entryY=0;entryDx=0;entryDy=0;dashed=1;" edge="1" parent="OnsMzoF5R4syNADGerhL-1" source="OnsMzoF5R4syNADGerhL-11" target="OnsMzoF5R4syNADGerhL-13">
                    <mxGeometry relative="1" as="geometry"/>
                </mxCell>
                <mxCell id="OnsMzoF5R4syNADGerhL-11" value="&lt;div style=&quot;background-color: rgb(255 , 255 , 255) ; font-family: &amp;#34;consolas&amp;#34; , &amp;#34;courier new&amp;#34; , monospace ; font-size: 14px ; line-height: 19px&quot;&gt;ForecastRestController&lt;/div&gt;" style="html=1;align=center;verticalAlign=top;rounded=1;absoluteArcSize=1;arcSize=10;dashed=0;shadow=0;spacingTop=12;" vertex="1" parent="OnsMzoF5R4syNADGerhL-1">
                    <mxGeometry x="260" y="100" width="200" height="60" as="geometry"/>
                </mxCell>
                <mxCell id="OnsMzoF5R4syNADGerhL-12" value="" style="html=1;verticalAlign=bottom;labelBackgroundColor=none;endArrow=open;endFill=0;entryX=0;entryY=0.5;entryDx=0;entryDy=0;exitX=0;exitY=0.5;exitDx=0;exitDy=0;" edge="1" parent="OnsMzoF5R4syNADGerhL-1" source="OnsMzoF5R4syNADGerhL-13">
                    <mxGeometry width="160" relative="1" as="geometry">
                        <mxPoint x="330" y="250" as="sourcePoint"/>
                        <mxPoint x="170" y="350" as="targetPoint"/>
                    </mxGeometry>
                </mxCell>
                <mxCell id="OnsMzoF5R4syNADGerhL-13" value="&lt;div style=&quot;background-color: rgb(255 , 255 , 255) ; font-family: &amp;#34;consolas&amp;#34; , &amp;#34;courier new&amp;#34; , monospace ; font-size: 14px ; line-height: 19px&quot;&gt;ForecastRestController&lt;/div&gt;" style="html=1;align=center;verticalAlign=top;rounded=1;absoluteArcSize=1;arcSize=10;dashed=0;shadow=0;spacingTop=12;" vertex="1" parent="OnsMzoF5R4syNADGerhL-1">
                    <mxGeometry x="260" y="320" width="200" height="60" as="geometry"/>
                </mxCell>
                <mxCell id="OnsMzoF5R4syNADGerhL-14" value="" style="html=1;verticalAlign=bottom;labelBackgroundColor=none;endArrow=open;endFill=0;entryX=0;entryY=0.25;entryDx=0;entryDy=0;" edge="1" parent="OnsMzoF5R4syNADGerhL-1" target="OnsMzoF5R4syNADGerhL-17">
                    <mxGeometry width="160" relative="1" as="geometry">
                        <mxPoint x="360" y="210" as="sourcePoint"/>
                        <mxPoint x="520" y="200" as="targetPoint"/>
                    </mxGeometry>
                </mxCell>
                <mxCell id="OnsMzoF5R4syNADGerhL-15" value="" style="html=1;verticalAlign=bottom;labelBackgroundColor=none;endArrow=open;endFill=0;exitX=0;exitY=0.75;exitDx=0;exitDy=0;" edge="1" parent="OnsMzoF5R4syNADGerhL-1" source="OnsMzoF5R4syNADGerhL-17">
                    <mxGeometry width="160" relative="1" as="geometry">
                        <mxPoint x="520" y="230" as="sourcePoint"/>
                        <mxPoint x="360" y="255" as="targetPoint"/>
                    </mxGeometry>
                </mxCell>
                <mxCell id="OnsMzoF5R4syNADGerhL-16" style="edgeStyle=orthogonalEdgeStyle;rounded=0;orthogonalLoop=1;jettySize=auto;html=1;exitX=1;exitY=0.75;exitDx=0;exitDy=0;entryX=0;entryY=0.5;entryDx=0;entryDy=0;" edge="1" parent="OnsMzoF5R4syNADGerhL-1" source="OnsMzoF5R4syNADGerhL-17" target="OnsMzoF5R4syNADGerhL-18">
                    <mxGeometry relative="1" as="geometry">
                        <mxPoint x="720" y="209.5" as="targetPoint"/>
                    </mxGeometry>
                </mxCell>
                <mxCell id="NjZlbT3mgSNKa6E1w8au-2" style="edgeStyle=orthogonalEdgeStyle;rounded=0;orthogonalLoop=1;jettySize=auto;html=1;exitX=0.09;exitY=0.677;exitDx=0;exitDy=0;entryX=1;entryY=0.5;entryDx=0;entryDy=0;exitPerimeter=0;dashed=1;" edge="1" parent="OnsMzoF5R4syNADGerhL-1" source="NjZlbT3mgSNKa6E1w8au-0" target="OnsMzoF5R4syNADGerhL-17">
                    <mxGeometry relative="1" as="geometry"/>
                </mxCell>
                <mxCell id="NjZlbT3mgSNKa6E1w8au-3" style="edgeStyle=orthogonalEdgeStyle;rounded=0;orthogonalLoop=1;jettySize=auto;html=1;exitX=1;exitY=0.25;exitDx=0;exitDy=0;entryX=0.009;entryY=0.46;entryDx=0;entryDy=0;entryPerimeter=0;dashed=1;" edge="1" parent="OnsMzoF5R4syNADGerhL-1" source="OnsMzoF5R4syNADGerhL-17" target="NjZlbT3mgSNKa6E1w8au-0">
                    <mxGeometry relative="1" as="geometry"/>
                </mxCell>
                <mxCell id="OnsMzoF5R4syNADGerhL-17" value="&lt;div style=&quot;background-color: rgb(255 , 255 , 255) ; font-family: &amp;#34;consolas&amp;#34; , &amp;#34;courier new&amp;#34; , monospace ; font-size: 14px ; line-height: 19px&quot;&gt;&lt;div style=&quot;font-family: &amp;#34;consolas&amp;#34; , &amp;#34;courier new&amp;#34; , monospace ; line-height: 19px&quot;&gt;&lt;div style=&quot;font-family: &amp;#34;consolas&amp;#34; , &amp;#34;courier new&amp;#34; , monospace ; line-height: 19px&quot;&gt;forecastService&lt;/div&gt;&lt;/div&gt;&lt;div style=&quot;font-family: &amp;#34;consolas&amp;#34; , &amp;#34;courier new&amp;#34; , monospace ; line-height: 19px&quot;&gt;&lt;div style=&quot;font-family: &amp;#34;consolas&amp;#34; , &amp;#34;courier new&amp;#34; , monospace ; line-height: 19px&quot;&gt;&lt;span style=&quot;font-family: &amp;#34;consolas&amp;#34; , &amp;#34;courier new&amp;#34; , monospace&quot;&gt;startAutolookupForecastFor&lt;/span&gt;()&lt;/div&gt;&lt;/div&gt;&lt;/div&gt;" style="html=1;align=center;verticalAlign=top;rounded=1;absoluteArcSize=1;arcSize=10;dashed=0;shadow=0;spacingTop=22;" vertex="1" parent="OnsMzoF5R4syNADGerhL-1">
                    <mxGeometry x="480" y="186" width="230" height="94" as="geometry"/>
                </mxCell>
                <mxCell id="OnsMzoF5R4syNADGerhL-18" value="forecasts&lt;br&gt;table" style="shape=cylinder;whiteSpace=wrap;html=1;boundedLbl=1;backgroundOutline=1;shadow=0;strokeWidth=2;glass=1;spacingTop=-24;" vertex="1" parent="OnsMzoF5R4syNADGerhL-1">
                    <mxGeometry x="796" y="297" width="90" height="133" as="geometry"/>
                </mxCell>
                <mxCell id="NjZlbT3mgSNKa6E1w8au-0" value="" style="pointerEvents=1;shadow=0;dashed=0;html=1;strokeColor=none;fillColor=#505050;labelPosition=center;verticalLabelPosition=bottom;outlineConnect=0;verticalAlign=top;align=center;shape=mxgraph.office.clouds.public_cloud;" vertex="1" parent="OnsMzoF5R4syNADGerhL-1">
                    <mxGeometry x="790.5" y="160" width="119.5" height="107" as="geometry"/>
                </mxCell>
                <mxCell id="NjZlbT3mgSNKa6E1w8au-5" value="www.openweathermap.org" style="text;html=1;resizable=0;autosize=1;align=center;verticalAlign=middle;points=[];fillColor=none;strokeColor=none;rounded=0;fontStyle=0;fontSize=18;spacing=7;" vertex="1" parent="OnsMzoF5R4syNADGerhL-1">
                    <mxGeometry x="721" y="120" width="240" height="40" as="geometry"/>
                </mxCell>
            </root>
        </mxGraphModel>
    </diagram>
    <diagram name="forecast_seed" id="9V4nu_6KgXEIdL6l7NVk">
        <mxGraphModel dx="682" dy="470" grid="1" gridSize="10" guides="1" tooltips="1" connect="1" arrows="1" fold="1" page="1" pageScale="1" pageWidth="827" pageHeight="1169" math="0" shadow="0">
            <root>
                <mxCell id="ID7U41zceB5v7bTVXZlB-0"/>
                <mxCell id="ID7U41zceB5v7bTVXZlB-1" parent="ID7U41zceB5v7bTVXZlB-0"/>
                <mxCell id="ID7U41zceB5v7bTVXZlB-3" value="Actor" style="shape=umlActor;verticalLabelPosition=bottom;verticalAlign=top;html=1;" vertex="1" parent="ID7U41zceB5v7bTVXZlB-1">
                    <mxGeometry x="40" y="55" width="20" height="50" as="geometry"/>
                </mxCell>
                <mxCell id="ID7U41zceB5v7bTVXZlB-4" value="HTML&lt;br&gt;response" style="html=1;align=center;verticalAlign=top;rounded=1;absoluteArcSize=1;arcSize=10;dashed=0;shadow=0;" vertex="1" parent="ID7U41zceB5v7bTVXZlB-1">
                    <mxGeometry x="100" y="390" width="140" height="40" as="geometry"/>
                </mxCell>
                <mxCell id="ID7U41zceB5v7bTVXZlB-5" value="GET&lt;br&gt;request" style="html=1;align=center;verticalAlign=top;rounded=1;absoluteArcSize=1;arcSize=10;dashed=0;shadow=0;" vertex="1" parent="ID7U41zceB5v7bTVXZlB-1">
                    <mxGeometry x="100" y="60" width="140" height="40" as="geometry"/>
                </mxCell>
                <mxCell id="ID7U41zceB5v7bTVXZlB-6" value="" style="html=1;verticalAlign=bottom;labelBackgroundColor=none;endArrow=open;endFill=0;dashed=1;exitX=0.5;exitY=1;exitDx=0;exitDy=0;entryX=0.5;entryY=0;entryDx=0;entryDy=0;" edge="1" parent="ID7U41zceB5v7bTVXZlB-1" source="ID7U41zceB5v7bTVXZlB-5" target="ID7U41zceB5v7bTVXZlB-4">
                    <mxGeometry width="160" relative="1" as="geometry">
                        <mxPoint x="180" y="120" as="sourcePoint"/>
                        <mxPoint x="169.5" y="184" as="targetPoint"/>
                    </mxGeometry>
                </mxCell>
                <mxCell id="ID7U41zceB5v7bTVXZlB-7" value="" style="html=1;verticalAlign=bottom;labelBackgroundColor=none;endArrow=open;endFill=0;entryX=0;entryY=0.5;entryDx=0;entryDy=0;" edge="1" parent="ID7U41zceB5v7bTVXZlB-1" target="ID7U41zceB5v7bTVXZlB-12">
                    <mxGeometry width="160" relative="1" as="geometry">
                        <mxPoint x="170" y="130" as="sourcePoint"/>
                        <mxPoint x="330" y="130" as="targetPoint"/>
                    </mxGeometry>
                </mxCell>
                <mxCell id="ID7U41zceB5v7bTVXZlB-8" value="" style="html=1;verticalAlign=bottom;labelBackgroundColor=none;endArrow=open;endFill=0;dashed=1;entryX=0;entryY=0.5;entryDx=0;entryDy=0;exitX=0.5;exitY=0.5;exitDx=0;exitDy=0;exitPerimeter=0;" edge="1" parent="ID7U41zceB5v7bTVXZlB-1" source="ID7U41zceB5v7bTVXZlB-3" target="ID7U41zceB5v7bTVXZlB-5">
                    <mxGeometry width="160" relative="1" as="geometry">
                        <mxPoint x="50" y="80" as="sourcePoint"/>
                        <mxPoint x="220" y="79.5" as="targetPoint"/>
                    </mxGeometry>
                </mxCell>
                <mxCell id="ID7U41zceB5v7bTVXZlB-9" value="Actor" style="shape=umlActor;verticalLabelPosition=bottom;verticalAlign=top;html=1;" vertex="1" parent="ID7U41zceB5v7bTVXZlB-1">
                    <mxGeometry x="40" y="385" width="20" height="50" as="geometry"/>
                </mxCell>
                <mxCell id="ID7U41zceB5v7bTVXZlB-10" value="" style="html=1;verticalAlign=bottom;labelBackgroundColor=none;endArrow=open;endFill=0;dashed=1;entryX=0.5;entryY=0.5;entryDx=0;entryDy=0;entryPerimeter=0;exitX=0;exitY=0.5;exitDx=0;exitDy=0;" edge="1" parent="ID7U41zceB5v7bTVXZlB-1" source="ID7U41zceB5v7bTVXZlB-4" target="ID7U41zceB5v7bTVXZlB-9">
                    <mxGeometry width="160" relative="1" as="geometry">
                        <mxPoint x="100" y="405" as="sourcePoint"/>
                        <mxPoint x="50" y="405" as="targetPoint"/>
                    </mxGeometry>
                </mxCell>
                <mxCell id="ID7U41zceB5v7bTVXZlB-11" style="edgeStyle=orthogonalEdgeStyle;rounded=0;orthogonalLoop=1;jettySize=auto;html=1;exitX=0.5;exitY=1;exitDx=0;exitDy=0;entryX=0.5;entryY=0;entryDx=0;entryDy=0;dashed=1;" edge="1" parent="ID7U41zceB5v7bTVXZlB-1" source="ID7U41zceB5v7bTVXZlB-12" target="ID7U41zceB5v7bTVXZlB-14">
                    <mxGeometry relative="1" as="geometry"/>
                </mxCell>
                <mxCell id="ID7U41zceB5v7bTVXZlB-12" value="&lt;div style=&quot;background-color: rgb(255 , 255 , 255) ; font-family: &amp;#34;consolas&amp;#34; , &amp;#34;courier new&amp;#34; , monospace ; font-size: 14px ; line-height: 19px&quot;&gt;ForecastRestController&lt;/div&gt;" style="html=1;align=center;verticalAlign=top;rounded=1;absoluteArcSize=1;arcSize=10;dashed=0;shadow=0;spacingTop=12;" vertex="1" parent="ID7U41zceB5v7bTVXZlB-1">
                    <mxGeometry x="260" y="100" width="200" height="60" as="geometry"/>
                </mxCell>
                <mxCell id="ID7U41zceB5v7bTVXZlB-13" value="" style="html=1;verticalAlign=bottom;labelBackgroundColor=none;endArrow=open;endFill=0;entryX=0;entryY=0.5;entryDx=0;entryDy=0;exitX=0;exitY=0.5;exitDx=0;exitDy=0;" edge="1" parent="ID7U41zceB5v7bTVXZlB-1" source="ID7U41zceB5v7bTVXZlB-14">
                    <mxGeometry width="160" relative="1" as="geometry">
                        <mxPoint x="330" y="250" as="sourcePoint"/>
                        <mxPoint x="170" y="350" as="targetPoint"/>
                    </mxGeometry>
                </mxCell>
                <mxCell id="ID7U41zceB5v7bTVXZlB-14" value="&lt;div style=&quot;background-color: rgb(255 , 255 , 255) ; font-family: &amp;#34;consolas&amp;#34; , &amp;#34;courier new&amp;#34; , monospace ; font-size: 14px ; line-height: 19px&quot;&gt;ForecastRestController&lt;/div&gt;" style="html=1;align=center;verticalAlign=top;rounded=1;absoluteArcSize=1;arcSize=10;dashed=0;shadow=0;spacingTop=12;" vertex="1" parent="ID7U41zceB5v7bTVXZlB-1">
                    <mxGeometry x="260" y="320" width="200" height="60" as="geometry"/>
                </mxCell>
                <mxCell id="ID7U41zceB5v7bTVXZlB-15" value="" style="html=1;verticalAlign=bottom;labelBackgroundColor=none;endArrow=open;endFill=0;entryX=0;entryY=0.25;entryDx=0;entryDy=0;" edge="1" parent="ID7U41zceB5v7bTVXZlB-1" target="ID7U41zceB5v7bTVXZlB-19">
                    <mxGeometry width="160" relative="1" as="geometry">
                        <mxPoint x="360" y="210" as="sourcePoint"/>
                        <mxPoint x="520" y="200" as="targetPoint"/>
                    </mxGeometry>
                </mxCell>
                <mxCell id="ID7U41zceB5v7bTVXZlB-16" value="" style="html=1;verticalAlign=bottom;labelBackgroundColor=none;endArrow=open;endFill=0;exitX=0;exitY=0.75;exitDx=0;exitDy=0;" edge="1" parent="ID7U41zceB5v7bTVXZlB-1" source="ID7U41zceB5v7bTVXZlB-19">
                    <mxGeometry width="160" relative="1" as="geometry">
                        <mxPoint x="520" y="230" as="sourcePoint"/>
                        <mxPoint x="360" y="255" as="targetPoint"/>
                    </mxGeometry>
                </mxCell>
                <mxCell id="ID7U41zceB5v7bTVXZlB-17" style="edgeStyle=orthogonalEdgeStyle;rounded=0;orthogonalLoop=1;jettySize=auto;html=1;exitX=1;exitY=0.5;exitDx=0;exitDy=0;entryX=0;entryY=0.5;entryDx=0;entryDy=0;" edge="1" parent="ID7U41zceB5v7bTVXZlB-1" source="ID7U41zceB5v7bTVXZlB-19" target="ID7U41zceB5v7bTVXZlB-20">
                    <mxGeometry relative="1" as="geometry">
                        <mxPoint x="720" y="209.5" as="targetPoint"/>
                    </mxGeometry>
                </mxCell>
                <mxCell id="ID7U41zceB5v7bTVXZlB-19" value="&lt;div style=&quot;background-color: rgb(255 , 255 , 255) ; font-family: &amp;#34;consolas&amp;#34; , &amp;#34;courier new&amp;#34; , monospace ; font-size: 14px ; line-height: 19px&quot;&gt;&lt;div style=&quot;font-family: &amp;#34;consolas&amp;#34; , &amp;#34;courier new&amp;#34; , monospace ; line-height: 19px&quot;&gt;&lt;div style=&quot;font-family: &amp;#34;consolas&amp;#34; , &amp;#34;courier new&amp;#34; , monospace ; line-height: 19px&quot;&gt;forecastService&lt;/div&gt;&lt;/div&gt;&lt;div style=&quot;font-family: &amp;#34;consolas&amp;#34; , &amp;#34;courier new&amp;#34; , monospace ; line-height: 19px&quot;&gt;&lt;div style=&quot;font-family: &amp;#34;consolas&amp;#34; , &amp;#34;courier new&amp;#34; , monospace ; line-height: 19px&quot;&gt;&lt;span style=&quot;font-family: &amp;#34;consolas&amp;#34; , &amp;#34;courier new&amp;#34; , monospace&quot;&gt;startSeedingForecastFor&lt;/span&gt;()&lt;/div&gt;&lt;/div&gt;&lt;/div&gt;" style="html=1;align=center;verticalAlign=top;rounded=1;absoluteArcSize=1;arcSize=10;dashed=0;shadow=0;spacingTop=22;" vertex="1" parent="ID7U41zceB5v7bTVXZlB-1">
                    <mxGeometry x="480" y="186" width="200" height="94" as="geometry"/>
                </mxCell>
                <mxCell id="ID7U41zceB5v7bTVXZlB-20" value="forecasts&lt;br&gt;table" style="shape=cylinder;whiteSpace=wrap;html=1;boundedLbl=1;backgroundOutline=1;shadow=0;strokeWidth=2;glass=1;spacingTop=-24;" vertex="1" parent="ID7U41zceB5v7bTVXZlB-1">
                    <mxGeometry x="737" y="166.5" width="90" height="133" as="geometry"/>
                </mxCell>
            </root>
        </mxGraphModel>
    </diagram>
    <diagram name="cities_load" id="UTjOGOw8DVCoGJFwHRWK">
        <mxGraphModel dx="682" dy="470" grid="1" gridSize="10" guides="1" tooltips="1" connect="1" arrows="1" fold="1" page="1" pageScale="1" pageWidth="827" pageHeight="1169" math="0" shadow="0">
            <root>
                <mxCell id="CkLRSc51kOckFidK3EKy-0"/>
                <mxCell id="CkLRSc51kOckFidK3EKy-1" parent="CkLRSc51kOckFidK3EKy-0"/>
                <mxCell id="CkLRSc51kOckFidK3EKy-20" value="city.list.json" style="strokeWidth=2;html=1;shape=mxgraph.flowchart.document2;whiteSpace=wrap;size=0.25;shadow=0;glass=1;spacingTop=-24;" parent="CkLRSc51kOckFidK3EKy-1" vertex="1">
                    <mxGeometry x="680" y="177" width="100" height="130" as="geometry"/>
                </mxCell>
                <mxCell id="CkLRSc51kOckFidK3EKy-2" value="Actor" style="shape=umlActor;verticalLabelPosition=bottom;verticalAlign=top;html=1;" parent="CkLRSc51kOckFidK3EKy-1" vertex="1">
                    <mxGeometry x="40" y="55" width="20" height="50" as="geometry"/>
                </mxCell>
                <mxCell id="CkLRSc51kOckFidK3EKy-3" value="JSON&lt;br&gt;response" style="html=1;align=center;verticalAlign=top;rounded=1;absoluteArcSize=1;arcSize=10;dashed=0;shadow=0;" parent="CkLRSc51kOckFidK3EKy-1" vertex="1">
                    <mxGeometry x="100" y="390" width="140" height="40" as="geometry"/>
                </mxCell>
                <mxCell id="CkLRSc51kOckFidK3EKy-4" value="GET&lt;br&gt;request" style="html=1;align=center;verticalAlign=top;rounded=1;absoluteArcSize=1;arcSize=10;dashed=0;shadow=0;" parent="CkLRSc51kOckFidK3EKy-1" vertex="1">
                    <mxGeometry x="100" y="60" width="140" height="40" as="geometry"/>
                </mxCell>
                <mxCell id="CkLRSc51kOckFidK3EKy-5" value="" style="html=1;verticalAlign=bottom;labelBackgroundColor=none;endArrow=open;endFill=0;dashed=1;exitX=0.5;exitY=1;exitDx=0;exitDy=0;entryX=0.5;entryY=0;entryDx=0;entryDy=0;" parent="CkLRSc51kOckFidK3EKy-1" source="CkLRSc51kOckFidK3EKy-4" target="CkLRSc51kOckFidK3EKy-3" edge="1">
                    <mxGeometry width="160" relative="1" as="geometry">
                        <mxPoint x="180" y="120" as="sourcePoint"/>
                        <mxPoint x="169.5" y="184" as="targetPoint"/>
                    </mxGeometry>
                </mxCell>
                <mxCell id="CkLRSc51kOckFidK3EKy-6" value="" style="html=1;verticalAlign=bottom;labelBackgroundColor=none;endArrow=open;endFill=0;entryX=0;entryY=0.5;entryDx=0;entryDy=0;" parent="CkLRSc51kOckFidK3EKy-1" target="CkLRSc51kOckFidK3EKy-11" edge="1">
                    <mxGeometry width="160" relative="1" as="geometry">
                        <mxPoint x="170" y="130" as="sourcePoint"/>
                        <mxPoint x="330" y="130" as="targetPoint"/>
                    </mxGeometry>
                </mxCell>
                <mxCell id="CkLRSc51kOckFidK3EKy-7" value="" style="html=1;verticalAlign=bottom;labelBackgroundColor=none;endArrow=open;endFill=0;dashed=1;entryX=0;entryY=0.5;entryDx=0;entryDy=0;exitX=0.5;exitY=0.5;exitDx=0;exitDy=0;exitPerimeter=0;" parent="CkLRSc51kOckFidK3EKy-1" source="CkLRSc51kOckFidK3EKy-2" target="CkLRSc51kOckFidK3EKy-4" edge="1">
                    <mxGeometry width="160" relative="1" as="geometry">
                        <mxPoint x="50" y="80" as="sourcePoint"/>
                        <mxPoint x="220" y="79.5" as="targetPoint"/>
                    </mxGeometry>
                </mxCell>
                <mxCell id="CkLRSc51kOckFidK3EKy-8" value="Actor" style="shape=umlActor;verticalLabelPosition=bottom;verticalAlign=top;html=1;" parent="CkLRSc51kOckFidK3EKy-1" vertex="1">
                    <mxGeometry x="40" y="385" width="20" height="50" as="geometry"/>
                </mxCell>
                <mxCell id="CkLRSc51kOckFidK3EKy-9" value="" style="html=1;verticalAlign=bottom;labelBackgroundColor=none;endArrow=open;endFill=0;dashed=1;entryX=0.5;entryY=0.5;entryDx=0;entryDy=0;entryPerimeter=0;exitX=0;exitY=0.5;exitDx=0;exitDy=0;" parent="CkLRSc51kOckFidK3EKy-1" source="CkLRSc51kOckFidK3EKy-3" target="CkLRSc51kOckFidK3EKy-8" edge="1">
                    <mxGeometry width="160" relative="1" as="geometry">
                        <mxPoint x="100" y="405" as="sourcePoint"/>
                        <mxPoint x="50" y="405" as="targetPoint"/>
                    </mxGeometry>
                </mxCell>
                <mxCell id="CkLRSc51kOckFidK3EKy-10" style="edgeStyle=orthogonalEdgeStyle;rounded=0;orthogonalLoop=1;jettySize=auto;html=1;exitX=0.5;exitY=1;exitDx=0;exitDy=0;entryX=0.5;entryY=0;entryDx=0;entryDy=0;dashed=1;" parent="CkLRSc51kOckFidK3EKy-1" source="CkLRSc51kOckFidK3EKy-11" target="CkLRSc51kOckFidK3EKy-13" edge="1">
                    <mxGeometry relative="1" as="geometry"/>
                </mxCell>
                <mxCell id="CkLRSc51kOckFidK3EKy-11" value="&lt;div style=&quot;background-color: rgb(255 , 255 , 255) ; font-family: &amp;#34;consolas&amp;#34; , &amp;#34;courier new&amp;#34; , monospace ; font-size: 14px ; line-height: 19px&quot;&gt;HomeRestController&lt;/div&gt;" style="html=1;align=center;verticalAlign=top;rounded=1;absoluteArcSize=1;arcSize=10;dashed=0;shadow=0;spacingTop=12;" parent="CkLRSc51kOckFidK3EKy-1" vertex="1">
                    <mxGeometry x="260" y="100" width="160" height="60" as="geometry"/>
                </mxCell>
                <mxCell id="CkLRSc51kOckFidK3EKy-12" value="" style="html=1;verticalAlign=bottom;labelBackgroundColor=none;endArrow=open;endFill=0;entryX=0;entryY=0.5;entryDx=0;entryDy=0;exitX=0;exitY=0.5;exitDx=0;exitDy=0;" parent="CkLRSc51kOckFidK3EKy-1" source="CkLRSc51kOckFidK3EKy-13" edge="1">
                    <mxGeometry width="160" relative="1" as="geometry">
                        <mxPoint x="330" y="250" as="sourcePoint"/>
                        <mxPoint x="170" y="350" as="targetPoint"/>
                    </mxGeometry>
                </mxCell>
                <mxCell id="CkLRSc51kOckFidK3EKy-13" value="&lt;div style=&quot;background-color: rgb(255 , 255 , 255) ; font-family: &amp;#34;consolas&amp;#34; , &amp;#34;courier new&amp;#34; , monospace ; font-size: 14px ; line-height: 19px&quot;&gt;HomeRestController&lt;/div&gt;" style="html=1;align=center;verticalAlign=top;rounded=1;absoluteArcSize=1;arcSize=10;dashed=0;shadow=0;spacingTop=12;" parent="CkLRSc51kOckFidK3EKy-1" vertex="1">
                    <mxGeometry x="260" y="320" width="160" height="60" as="geometry"/>
                </mxCell>
                <mxCell id="CkLRSc51kOckFidK3EKy-15" value="" style="html=1;verticalAlign=bottom;labelBackgroundColor=none;endArrow=open;endFill=0;entryX=0;entryY=0.25;entryDx=0;entryDy=0;" parent="CkLRSc51kOckFidK3EKy-1" target="CkLRSc51kOckFidK3EKy-19" edge="1">
                    <mxGeometry width="160" relative="1" as="geometry">
                        <mxPoint x="340" y="210" as="sourcePoint"/>
                        <mxPoint x="520" y="200" as="targetPoint"/>
                    </mxGeometry>
                </mxCell>
                <mxCell id="CkLRSc51kOckFidK3EKy-16" value="" style="html=1;verticalAlign=bottom;labelBackgroundColor=none;endArrow=open;endFill=0;exitX=0;exitY=0.75;exitDx=0;exitDy=0;" parent="CkLRSc51kOckFidK3EKy-1" source="CkLRSc51kOckFidK3EKy-19" edge="1">
                    <mxGeometry width="160" relative="1" as="geometry">
                        <mxPoint x="520" y="230" as="sourcePoint"/>
                        <mxPoint x="340" y="255" as="targetPoint"/>
                    </mxGeometry>
                </mxCell>
                <mxCell id="CkLRSc51kOckFidK3EKy-17" style="edgeStyle=orthogonalEdgeStyle;rounded=0;orthogonalLoop=1;jettySize=auto;html=1;exitX=1;exitY=0.25;exitDx=0;exitDy=0;entryX=0;entryY=0.25;entryDx=0;entryDy=0;entryPerimeter=0;" parent="CkLRSc51kOckFidK3EKy-1" source="CkLRSc51kOckFidK3EKy-19" target="CkLRSc51kOckFidK3EKy-20" edge="1">
                    <mxGeometry relative="1" as="geometry">
                        <mxPoint x="680" y="210" as="targetPoint"/>
                    </mxGeometry>
                </mxCell>
                <mxCell id="CkLRSc51kOckFidK3EKy-18" style="edgeStyle=orthogonalEdgeStyle;rounded=0;orthogonalLoop=1;jettySize=auto;html=1;exitX=-0.016;exitY=0.617;exitDx=0;exitDy=0;entryX=1;entryY=0.75;entryDx=0;entryDy=0;exitPerimeter=0;" parent="CkLRSc51kOckFidK3EKy-1" source="CkLRSc51kOckFidK3EKy-20" target="CkLRSc51kOckFidK3EKy-19" edge="1">
                    <mxGeometry relative="1" as="geometry">
                        <mxPoint x="655.02" y="255.64" as="sourcePoint"/>
                    </mxGeometry>
                </mxCell>
                <mxCell id="CkLRSc51kOckFidK3EKy-19" value="&lt;div style=&quot;background-color: rgb(255 , 255 , 255) ; font-family: &amp;#34;consolas&amp;#34; , &amp;#34;courier new&amp;#34; , monospace ; font-size: 14px ; line-height: 19px&quot;&gt;&lt;div style=&quot;font-family: &amp;#34;consolas&amp;#34; , &amp;#34;courier new&amp;#34; , monospace ; line-height: 19px&quot;&gt;cityService&lt;/div&gt;&lt;div style=&quot;font-family: &amp;#34;consolas&amp;#34; , &amp;#34;courier new&amp;#34; , monospace ; line-height: 19px&quot;&gt;&lt;div style=&quot;font-family: &amp;#34;consolas&amp;#34; , &amp;#34;courier new&amp;#34; , monospace ; line-height: 19px&quot;&gt;startLoadingCities()&lt;/div&gt;&lt;/div&gt;&lt;/div&gt;" style="html=1;align=center;verticalAlign=top;rounded=1;absoluteArcSize=1;arcSize=10;dashed=0;shadow=0;spacingTop=22;" parent="CkLRSc51kOckFidK3EKy-1" vertex="1">
                    <mxGeometry x="440" y="186" width="160" height="94" as="geometry"/>
                </mxCell>
            </root>
        </mxGraphModel>
    </diagram>
    <diagram id="pTXqJdgNP35S5wvWNV6L" name="cities">
        <mxGraphModel dx="682" dy="470" grid="1" gridSize="10" guides="1" tooltips="1" connect="1" arrows="1" fold="1" page="1" pageScale="1" pageWidth="827" pageHeight="1169" math="0" shadow="0">
            <root>
                <mxCell id="csuTqZvU9ZyXRLFZO2Ps-0"/>
                <mxCell id="csuTqZvU9ZyXRLFZO2Ps-1" parent="csuTqZvU9ZyXRLFZO2Ps-0"/>
                <mxCell id="95GQMW3xoLAmwyhACWwv-0" value="Actor" style="shape=umlActor;verticalLabelPosition=bottom;verticalAlign=top;html=1;" parent="csuTqZvU9ZyXRLFZO2Ps-1" vertex="1">
                    <mxGeometry x="40" y="55" width="20" height="50" as="geometry"/>
                </mxCell>
                <mxCell id="95GQMW3xoLAmwyhACWwv-1" value="JSON&lt;br&gt;response" style="html=1;align=center;verticalAlign=top;rounded=1;absoluteArcSize=1;arcSize=10;dashed=0;shadow=0;" parent="csuTqZvU9ZyXRLFZO2Ps-1" vertex="1">
                    <mxGeometry x="100" y="390" width="140" height="40" as="geometry"/>
                </mxCell>
                <mxCell id="95GQMW3xoLAmwyhACWwv-2" value="GET&lt;br&gt;request" style="html=1;align=center;verticalAlign=top;rounded=1;absoluteArcSize=1;arcSize=10;dashed=0;shadow=0;" parent="csuTqZvU9ZyXRLFZO2Ps-1" vertex="1">
                    <mxGeometry x="100" y="60" width="140" height="40" as="geometry"/>
                </mxCell>
                <mxCell id="95GQMW3xoLAmwyhACWwv-3" value="" style="html=1;verticalAlign=bottom;labelBackgroundColor=none;endArrow=open;endFill=0;dashed=1;exitX=0.5;exitY=1;exitDx=0;exitDy=0;entryX=0.5;entryY=0;entryDx=0;entryDy=0;" parent="csuTqZvU9ZyXRLFZO2Ps-1" source="95GQMW3xoLAmwyhACWwv-2" target="95GQMW3xoLAmwyhACWwv-1" edge="1">
                    <mxGeometry width="160" relative="1" as="geometry">
                        <mxPoint x="180" y="120" as="sourcePoint"/>
                        <mxPoint x="169.5" y="184" as="targetPoint"/>
                    </mxGeometry>
                </mxCell>
                <mxCell id="95GQMW3xoLAmwyhACWwv-4" value="" style="html=1;verticalAlign=bottom;labelBackgroundColor=none;endArrow=open;endFill=0;entryX=0;entryY=0.5;entryDx=0;entryDy=0;" parent="csuTqZvU9ZyXRLFZO2Ps-1" target="95GQMW3xoLAmwyhACWwv-9" edge="1">
                    <mxGeometry width="160" relative="1" as="geometry">
                        <mxPoint x="170" y="130" as="sourcePoint"/>
                        <mxPoint x="330" y="130" as="targetPoint"/>
                    </mxGeometry>
                </mxCell>
                <mxCell id="95GQMW3xoLAmwyhACWwv-5" value="" style="html=1;verticalAlign=bottom;labelBackgroundColor=none;endArrow=open;endFill=0;dashed=1;entryX=0;entryY=0.5;entryDx=0;entryDy=0;exitX=0.5;exitY=0.5;exitDx=0;exitDy=0;exitPerimeter=0;" parent="csuTqZvU9ZyXRLFZO2Ps-1" source="95GQMW3xoLAmwyhACWwv-0" target="95GQMW3xoLAmwyhACWwv-2" edge="1">
                    <mxGeometry width="160" relative="1" as="geometry">
                        <mxPoint x="50" y="80" as="sourcePoint"/>
                        <mxPoint x="220" y="79.5" as="targetPoint"/>
                    </mxGeometry>
                </mxCell>
                <mxCell id="95GQMW3xoLAmwyhACWwv-6" value="Actor" style="shape=umlActor;verticalLabelPosition=bottom;verticalAlign=top;html=1;" parent="csuTqZvU9ZyXRLFZO2Ps-1" vertex="1">
                    <mxGeometry x="40" y="385" width="20" height="50" as="geometry"/>
                </mxCell>
                <mxCell id="95GQMW3xoLAmwyhACWwv-7" value="" style="html=1;verticalAlign=bottom;labelBackgroundColor=none;endArrow=open;endFill=0;dashed=1;entryX=0.5;entryY=0.5;entryDx=0;entryDy=0;entryPerimeter=0;exitX=0;exitY=0.5;exitDx=0;exitDy=0;" parent="csuTqZvU9ZyXRLFZO2Ps-1" source="95GQMW3xoLAmwyhACWwv-1" target="95GQMW3xoLAmwyhACWwv-6" edge="1">
                    <mxGeometry width="160" relative="1" as="geometry">
                        <mxPoint x="100" y="405" as="sourcePoint"/>
                        <mxPoint x="50" y="405" as="targetPoint"/>
                    </mxGeometry>
                </mxCell>
                <mxCell id="95GQMW3xoLAmwyhACWwv-8" style="edgeStyle=orthogonalEdgeStyle;rounded=0;orthogonalLoop=1;jettySize=auto;html=1;exitX=0.5;exitY=1;exitDx=0;exitDy=0;entryX=0.5;entryY=0;entryDx=0;entryDy=0;dashed=1;" parent="csuTqZvU9ZyXRLFZO2Ps-1" source="95GQMW3xoLAmwyhACWwv-9" target="95GQMW3xoLAmwyhACWwv-11" edge="1">
                    <mxGeometry relative="1" as="geometry"/>
                </mxCell>
                <mxCell id="95GQMW3xoLAmwyhACWwv-9" value="&lt;div style=&quot;background-color: rgb(255 , 255 , 255) ; font-family: &amp;#34;consolas&amp;#34; , &amp;#34;courier new&amp;#34; , monospace ; font-size: 14px ; line-height: 19px&quot;&gt;HomeRestController&lt;/div&gt;" style="html=1;align=center;verticalAlign=top;rounded=1;absoluteArcSize=1;arcSize=10;dashed=0;shadow=0;spacingTop=12;" parent="csuTqZvU9ZyXRLFZO2Ps-1" vertex="1">
                    <mxGeometry x="260" y="100" width="160" height="60" as="geometry"/>
                </mxCell>
                <mxCell id="95GQMW3xoLAmwyhACWwv-10" value="" style="html=1;verticalAlign=bottom;labelBackgroundColor=none;endArrow=open;endFill=0;entryX=0;entryY=0.5;entryDx=0;entryDy=0;exitX=0;exitY=0.5;exitDx=0;exitDy=0;" parent="csuTqZvU9ZyXRLFZO2Ps-1" source="95GQMW3xoLAmwyhACWwv-11" edge="1">
                    <mxGeometry width="160" relative="1" as="geometry">
                        <mxPoint x="330" y="250" as="sourcePoint"/>
                        <mxPoint x="170" y="350" as="targetPoint"/>
                    </mxGeometry>
                </mxCell>
                <mxCell id="95GQMW3xoLAmwyhACWwv-11" value="&lt;div style=&quot;background-color: rgb(255 , 255 , 255) ; font-family: &amp;#34;consolas&amp;#34; , &amp;#34;courier new&amp;#34; , monospace ; font-size: 14px ; line-height: 19px&quot;&gt;HomeRestController&lt;/div&gt;" style="html=1;align=center;verticalAlign=top;rounded=1;absoluteArcSize=1;arcSize=10;dashed=0;shadow=0;spacingTop=12;" parent="csuTqZvU9ZyXRLFZO2Ps-1" vertex="1">
                    <mxGeometry x="260" y="320" width="160" height="60" as="geometry"/>
                </mxCell>
                <mxCell id="95GQMW3xoLAmwyhACWwv-12" value="Cities&lt;br&gt;table" style="strokeWidth=2;html=1;shape=mxgraph.flowchart.database;whiteSpace=wrap;shadow=0;glass=1;spacingTop=25;" parent="csuTqZvU9ZyXRLFZO2Ps-1" vertex="1">
                    <mxGeometry x="657" y="160" width="110" height="120" as="geometry"/>
                </mxCell>
                <mxCell id="95GQMW3xoLAmwyhACWwv-13" value="" style="html=1;verticalAlign=bottom;labelBackgroundColor=none;endArrow=open;endFill=0;entryX=0;entryY=0.25;entryDx=0;entryDy=0;" parent="csuTqZvU9ZyXRLFZO2Ps-1" target="95GQMW3xoLAmwyhACWwv-17" edge="1">
                    <mxGeometry width="160" relative="1" as="geometry">
                        <mxPoint x="340" y="210" as="sourcePoint"/>
                        <mxPoint x="520" y="200" as="targetPoint"/>
                    </mxGeometry>
                </mxCell>
                <mxCell id="95GQMW3xoLAmwyhACWwv-14" value="" style="html=1;verticalAlign=bottom;labelBackgroundColor=none;endArrow=open;endFill=0;exitX=0;exitY=0.75;exitDx=0;exitDy=0;" parent="csuTqZvU9ZyXRLFZO2Ps-1" source="95GQMW3xoLAmwyhACWwv-17" edge="1">
                    <mxGeometry width="160" relative="1" as="geometry">
                        <mxPoint x="520" y="230" as="sourcePoint"/>
                        <mxPoint x="340" y="255" as="targetPoint"/>
                    </mxGeometry>
                </mxCell>
                <mxCell id="95GQMW3xoLAmwyhACWwv-15" style="edgeStyle=orthogonalEdgeStyle;rounded=0;orthogonalLoop=1;jettySize=auto;html=1;exitX=1;exitY=0.25;exitDx=0;exitDy=0;entryX=0.004;entryY=0.41;entryDx=0;entryDy=0;entryPerimeter=0;" parent="csuTqZvU9ZyXRLFZO2Ps-1" source="95GQMW3xoLAmwyhACWwv-17" target="95GQMW3xoLAmwyhACWwv-12" edge="1">
                    <mxGeometry relative="1" as="geometry"/>
                </mxCell>
                <mxCell id="95GQMW3xoLAmwyhACWwv-16" style="edgeStyle=orthogonalEdgeStyle;rounded=0;orthogonalLoop=1;jettySize=auto;html=1;exitX=-0.018;exitY=0.797;exitDx=0;exitDy=0;entryX=1;entryY=0.75;entryDx=0;entryDy=0;exitPerimeter=0;" parent="csuTqZvU9ZyXRLFZO2Ps-1" source="95GQMW3xoLAmwyhACWwv-12" target="95GQMW3xoLAmwyhACWwv-17" edge="1">
                    <mxGeometry relative="1" as="geometry"/>
                </mxCell>
                <mxCell id="95GQMW3xoLAmwyhACWwv-17" value="&lt;div style=&quot;background-color: rgb(255 , 255 , 255) ; font-family: &amp;#34;consolas&amp;#34; , &amp;#34;courier new&amp;#34; , monospace ; font-size: 14px ; line-height: 19px&quot;&gt;&lt;div style=&quot;font-family: &amp;#34;consolas&amp;#34; , &amp;#34;courier new&amp;#34; , monospace ; line-height: 19px&quot;&gt;cityService&lt;/div&gt;&lt;div style=&quot;font-family: &amp;#34;consolas&amp;#34; , &amp;#34;courier new&amp;#34; , monospace ; line-height: 19px&quot;&gt;&lt;span style=&quot;font-family: &amp;#34;consolas&amp;#34; , &amp;#34;courier new&amp;#34; , monospace&quot;&gt;getCityList()&lt;/span&gt;&lt;/div&gt;&lt;/div&gt;" style="html=1;align=center;verticalAlign=top;rounded=1;absoluteArcSize=1;arcSize=10;dashed=0;shadow=0;spacingTop=22;" parent="csuTqZvU9ZyXRLFZO2Ps-1" vertex="1">
                    <mxGeometry x="440" y="186" width="160" height="94" as="geometry"/>
                </mxCell>
            </root>
        </mxGraphModel>
    </diagram>
    <diagram id="vM_HhYk_4ytpxl3O5rb6" name="Home">
        <mxGraphModel dx="990" dy="568" grid="1" gridSize="10" guides="1" tooltips="1" connect="1" arrows="1" fold="1" page="1" pageScale="1" pageWidth="827" pageHeight="1169" math="0" shadow="0">
            <root>
                <mxCell id="0"/>
                <mxCell id="1" parent="0"/>
                <mxCell id="20" value="Actor" style="shape=umlActor;verticalLabelPosition=bottom;verticalAlign=top;html=1;" parent="1" vertex="1">
                    <mxGeometry x="40" y="55" width="20" height="50" as="geometry"/>
                </mxCell>
                <mxCell id="21" value="HTML&lt;br&gt;response" style="html=1;align=center;verticalAlign=top;rounded=1;absoluteArcSize=1;arcSize=10;dashed=0;shadow=0;" parent="1" vertex="1">
                    <mxGeometry x="100" y="390" width="140" height="40" as="geometry"/>
                </mxCell>
                <mxCell id="22" value="GET&lt;br&gt;request" style="html=1;align=center;verticalAlign=top;rounded=1;absoluteArcSize=1;arcSize=10;dashed=0;shadow=0;" parent="1" vertex="1">
                    <mxGeometry x="100" y="60" width="140" height="40" as="geometry"/>
                </mxCell>
                <mxCell id="24" value="" style="html=1;verticalAlign=bottom;labelBackgroundColor=none;endArrow=open;endFill=0;dashed=1;exitX=0.5;exitY=1;exitDx=0;exitDy=0;entryX=0.5;entryY=0;entryDx=0;entryDy=0;" parent="1" source="22" target="21" edge="1">
                    <mxGeometry width="160" relative="1" as="geometry">
                        <mxPoint x="180" y="120" as="sourcePoint"/>
                        <mxPoint x="169.5" y="184" as="targetPoint"/>
                    </mxGeometry>
                </mxCell>
                <mxCell id="25" value="" style="html=1;verticalAlign=bottom;labelBackgroundColor=none;endArrow=open;endFill=0;entryX=0;entryY=0.5;entryDx=0;entryDy=0;" parent="1" target="35" edge="1">
                    <mxGeometry width="160" relative="1" as="geometry">
                        <mxPoint x="170" y="130" as="sourcePoint"/>
                        <mxPoint x="330" y="130" as="targetPoint"/>
                    </mxGeometry>
                </mxCell>
                <mxCell id="26" value="" style="html=1;verticalAlign=bottom;labelBackgroundColor=none;endArrow=open;endFill=0;dashed=1;entryX=0;entryY=0.5;entryDx=0;entryDy=0;exitX=0.5;exitY=0.5;exitDx=0;exitDy=0;exitPerimeter=0;" parent="1" source="20" target="22" edge="1">
                    <mxGeometry width="160" relative="1" as="geometry">
                        <mxPoint x="50" y="80" as="sourcePoint"/>
                        <mxPoint x="220" y="79.5" as="targetPoint"/>
                    </mxGeometry>
                </mxCell>
                <mxCell id="28" value="Actor" style="shape=umlActor;verticalLabelPosition=bottom;verticalAlign=top;html=1;" parent="1" vertex="1">
                    <mxGeometry x="40" y="385" width="20" height="50" as="geometry"/>
                </mxCell>
                <mxCell id="30" value="" style="html=1;verticalAlign=bottom;labelBackgroundColor=none;endArrow=open;endFill=0;dashed=1;entryX=0.5;entryY=0.5;entryDx=0;entryDy=0;entryPerimeter=0;exitX=0;exitY=0.5;exitDx=0;exitDy=0;" parent="1" source="21" target="28" edge="1">
                    <mxGeometry width="160" relative="1" as="geometry">
                        <mxPoint x="100" y="405" as="sourcePoint"/>
                        <mxPoint x="50" y="405" as="targetPoint"/>
                    </mxGeometry>
                </mxCell>
                <mxCell id="39" style="edgeStyle=orthogonalEdgeStyle;rounded=0;orthogonalLoop=1;jettySize=auto;html=1;exitX=0.5;exitY=1;exitDx=0;exitDy=0;entryX=0.5;entryY=0;entryDx=0;entryDy=0;dashed=1;" parent="1" source="35" target="38" edge="1">
                    <mxGeometry relative="1" as="geometry"/>
                </mxCell>
                <mxCell id="35" value="&lt;div style=&quot;background-color: rgb(255 , 255 , 255) ; font-family: &amp;#34;consolas&amp;#34; , &amp;#34;courier new&amp;#34; , monospace ; font-size: 14px ; line-height: 19px&quot;&gt;HomeRestController&lt;/div&gt;" style="html=1;align=center;verticalAlign=top;rounded=1;absoluteArcSize=1;arcSize=10;dashed=0;shadow=0;spacingTop=12;" parent="1" vertex="1">
                    <mxGeometry x="260" y="100" width="160" height="60" as="geometry"/>
                </mxCell>
                <mxCell id="37" value="" style="html=1;verticalAlign=bottom;labelBackgroundColor=none;endArrow=open;endFill=0;entryX=0;entryY=0.5;entryDx=0;entryDy=0;exitX=0;exitY=0.5;exitDx=0;exitDy=0;" parent="1" source="38" edge="1">
                    <mxGeometry width="160" relative="1" as="geometry">
                        <mxPoint x="330" y="250" as="sourcePoint"/>
                        <mxPoint x="170" y="350" as="targetPoint"/>
                    </mxGeometry>
                </mxCell>
                <mxCell id="38" value="&lt;div style=&quot;background-color: rgb(255 , 255 , 255) ; font-family: &amp;#34;consolas&amp;#34; , &amp;#34;courier new&amp;#34; , monospace ; font-size: 14px ; line-height: 19px&quot;&gt;HomeRestController&lt;/div&gt;" style="html=1;align=center;verticalAlign=top;rounded=1;absoluteArcSize=1;arcSize=10;dashed=0;shadow=0;spacingTop=12;" parent="1" vertex="1">
                    <mxGeometry x="260" y="320" width="160" height="60" as="geometry"/>
                </mxCell>
                <mxCell id="40" value="Cities&lt;br&gt;table" style="strokeWidth=2;html=1;shape=mxgraph.flowchart.database;whiteSpace=wrap;shadow=0;glass=1;spacingTop=25;" parent="1" vertex="1">
                    <mxGeometry x="657" y="160" width="110" height="120" as="geometry"/>
                </mxCell>
                <mxCell id="41" value="" style="html=1;verticalAlign=bottom;labelBackgroundColor=none;endArrow=open;endFill=0;entryX=0;entryY=0.25;entryDx=0;entryDy=0;" parent="1" target="43" edge="1">
                    <mxGeometry width="160" relative="1" as="geometry">
                        <mxPoint x="340" y="210" as="sourcePoint"/>
                        <mxPoint x="520" y="200" as="targetPoint"/>
                    </mxGeometry>
                </mxCell>
                <mxCell id="42" value="" style="html=1;verticalAlign=bottom;labelBackgroundColor=none;endArrow=open;endFill=0;exitX=0;exitY=0.75;exitDx=0;exitDy=0;" parent="1" source="43" edge="1">
                    <mxGeometry width="160" relative="1" as="geometry">
                        <mxPoint x="520" y="230" as="sourcePoint"/>
                        <mxPoint x="340" y="255" as="targetPoint"/>
                    </mxGeometry>
                </mxCell>
                <mxCell id="45" style="edgeStyle=orthogonalEdgeStyle;rounded=0;orthogonalLoop=1;jettySize=auto;html=1;exitX=1;exitY=0.25;exitDx=0;exitDy=0;entryX=0.004;entryY=0.41;entryDx=0;entryDy=0;entryPerimeter=0;" parent="1" source="43" target="40" edge="1">
                    <mxGeometry relative="1" as="geometry"/>
                </mxCell>
                <mxCell id="46" style="edgeStyle=orthogonalEdgeStyle;rounded=0;orthogonalLoop=1;jettySize=auto;html=1;exitX=-0.018;exitY=0.797;exitDx=0;exitDy=0;entryX=1;entryY=0.75;entryDx=0;entryDy=0;exitPerimeter=0;" parent="1" source="40" target="43" edge="1">
                    <mxGeometry relative="1" as="geometry"/>
                </mxCell>
                <mxCell id="43" value="&lt;div style=&quot;background-color: rgb(255 , 255 , 255) ; font-family: &amp;#34;consolas&amp;#34; , &amp;#34;courier new&amp;#34; , monospace ; font-size: 14px ; line-height: 19px&quot;&gt;&lt;div style=&quot;font-family: &amp;#34;consolas&amp;#34; , &amp;#34;courier new&amp;#34; , monospace ; line-height: 19px&quot;&gt;cityService&lt;/div&gt;&lt;div style=&quot;font-family: &amp;#34;consolas&amp;#34; , &amp;#34;courier new&amp;#34; , monospace ; line-height: 19px&quot;&gt;&lt;div style=&quot;font-family: &amp;#34;consolas&amp;#34; , &amp;#34;courier new&amp;#34; , monospace ; line-height: 19px&quot;&gt;getCityCount()&lt;/div&gt;&lt;/div&gt;&lt;/div&gt;" style="html=1;align=center;verticalAlign=top;rounded=1;absoluteArcSize=1;arcSize=10;dashed=0;shadow=0;spacingTop=22;" parent="1" vertex="1">
                    <mxGeometry x="440" y="186" width="160" height="94" as="geometry"/>
                </mxCell>
            </root>
        </mxGraphModel>
    </diagram>
</mxfile>